<svg width="230" height="51" viewBox="0 0 230 51" fill="none" xmlns="http://www.w3.org/2000/svg">
<g clip-path="url(#clip0)">
<path d="M54.3555 25.5005C54.3555 18.8676 59.5964 13.7086 67.3829 13.7086C69.1797 13.7086 71.2761 14.0034 73.9714 14.8878V19.1624C70.9766 17.9832 69.03 17.541 67.3829 17.541C62.142 17.541 58.9975 21.0786 58.9975 25.5005C58.9975 29.7751 62.142 33.3127 67.3829 33.3127C69.03 33.3127 70.9766 33.0179 73.9714 31.8387V36.1132C71.2761 36.9976 69.1797 37.2924 67.3829 37.2924C59.5964 37.2924 54.3555 32.1335 54.3555 25.5005Z" fill="white"/>
<path d="M94.1862 31.6914H83.8542L81.9076 36.9978H76.9662L85.9506 14.0035H92.0899L101.074 36.9978H96.1329L94.1862 31.6914ZM92.8386 28.3012L88.9454 17.6885L85.0521 28.3012H92.8386Z" fill="white"/>
<path d="M120.091 33.018V36.9978H104.069V14.0035H108.561V33.018H120.091Z" fill="white"/>
<path d="M122.038 25.5005C122.038 18.8676 127.279 13.7086 135.065 13.7086C136.862 13.7086 138.958 14.0034 141.654 14.8878V19.1624C138.659 17.9832 136.712 17.541 135.065 17.541C129.824 17.541 126.68 21.0786 126.68 25.5005C126.68 29.7751 129.824 33.3127 135.065 33.3127C136.712 33.3127 138.659 33.0179 141.654 31.8387V36.1132C138.958 36.9976 136.862 37.2924 135.065 37.2924C127.279 37.2924 122.038 32.1335 122.038 25.5005Z" fill="white"/>
<path d="M165.462 14.0035V27.859C165.462 33.6076 161.569 37.2926 155.729 37.2926C149.889 37.2926 145.996 33.6076 145.996 27.859V14.0035H150.488V27.859C150.488 31.1018 152.435 33.3128 155.729 33.3128C159.023 33.3128 160.97 31.1018 160.97 27.859V14.0035H165.462Z" fill="white"/>
<path d="M185.976 33.018V36.9978H169.954V14.0035H174.447V33.018H185.976Z" fill="white"/>
<path d="M209.037 14.0035V27.859C209.037 33.6076 205.143 37.2926 199.304 37.2926C193.464 37.2926 189.57 33.6076 189.57 27.859V14.0035H194.063V27.859C194.063 31.1018 196.009 33.3128 199.304 33.3128C202.598 33.3128 204.544 31.1018 204.544 27.859V14.0035H209.037Z" fill="white"/>
<path d="M212.78 35.5236V30.5121C215.475 32.2809 218.77 33.6075 221.315 33.6075C223.561 33.6075 225.059 32.4283 225.059 30.6595C225.059 25.6479 213.08 28.3011 213.08 20.3416C213.08 16.3618 216.524 13.7086 221.914 13.7086C224.011 13.7086 226.856 14.0034 229.251 14.7404V19.4572C226.406 18.1306 223.861 17.3936 221.914 17.3936C219.518 17.3936 218.171 18.5728 218.171 20.0468C218.171 24.7635 230.15 21.963 230.15 30.2173C230.15 34.1971 227.005 37.4398 221.764 37.4398C219.369 37.2924 216.074 36.8502 212.78 35.5236Z" fill="white"/>
<path d="M35.1887 30.2165L34.8893 30.6587C33.0924 33.6067 29.7981 35.5229 26.2044 35.5229C25.4557 35.5229 24.707 35.3755 24.108 35.2281C23.5091 35.0807 23.0598 34.9333 22.4609 34.7859C20.3645 34.0489 18.7174 32.5749 17.5195 30.6587C16.621 29.1847 16.1718 27.416 16.1718 25.7946C16.1718 24.0258 16.621 22.4044 17.5195 20.9304C17.6692 20.783 17.6692 20.6356 17.8189 20.4882C18.2682 19.7512 18.8671 19.1616 19.4661 18.572C21.263 16.9506 23.6588 16.0662 26.2044 16.0662C29.3489 16.0662 32.1939 17.5402 33.9908 19.8986C34.2903 20.1934 34.5898 20.6356 34.7395 20.9304L35.039 21.3726L36.8359 20.3408L48.2161 13.8553L48.5156 13.7079L48.3658 13.5605V13.2657C44.3228 6.63271 37.4348 2.06335 29.6484 1.03155C28.7499 0.884155 27.8515 0.884155 26.9531 0.884155C26.6536 0.884155 26.5038 0.884155 26.2044 0.884155C21.263 0.884155 16.4713 2.35814 12.5781 4.86392C11.8294 5.30612 11.0807 5.89572 10.332 6.48531C8.08588 8.1067 6.13926 10.3177 4.49213 12.9709C4.49213 12.9709 4.49213 13.1183 4.34239 13.1183V13.2657C2.09629 17.098 0.898376 21.3726 0.898376 25.7946C0.898376 26.5316 0.898376 27.416 1.04812 28.1529C1.04812 28.5951 1.19786 28.8899 1.19786 29.3321C1.19786 29.4795 1.19786 29.6269 1.19786 29.7743C1.19786 30.2165 1.3476 30.5113 1.3476 30.9535C1.94655 33.4593 2.84499 35.9651 4.19265 38.3235C4.7916 39.3553 5.39056 40.2397 6.13926 41.124L6.289 41.2714C9.28379 45.1038 13.4765 47.9044 18.1184 49.3784C18.4179 49.5258 18.7174 49.5258 19.0169 49.6732C19.1666 49.6732 19.1666 49.6732 19.3163 49.8206C19.7656 49.968 20.3645 50.1154 20.9635 50.2628C22.7604 50.705 24.5572 50.8524 26.3541 50.8524C30.3971 50.8524 34.2903 49.968 37.7343 48.1992C37.7343 48.1992 37.884 48.1992 37.884 48.0518C41.7773 45.9882 45.2213 43.0402 47.7669 39.2079C47.9166 38.9131 48.2161 38.6183 48.3658 38.3235L48.6653 37.8813L46.7187 36.8495L35.1887 30.2165ZM37.7343 47.02C37.2851 47.1674 36.9856 47.4622 36.5364 47.6096C33.3919 49.0836 29.9479 49.8206 26.3541 49.8206C24.5572 49.8206 22.7604 49.6732 21.1132 49.231C20.9635 49.231 20.8137 49.231 20.664 49.0836C20.2148 48.9362 19.7656 48.9362 19.4661 48.7888C19.3163 48.7888 19.0169 48.6414 18.8671 48.6414C14.6744 47.3148 10.7812 44.6616 7.93614 41.2714C7.63666 40.9766 7.48692 40.6818 7.18744 40.3871C6.58848 39.6501 5.98952 38.7657 5.5403 37.8813C4.19265 35.6703 3.29421 33.1645 2.69525 30.6587V30.5113C2.69525 30.2165 2.54551 29.9217 2.54551 29.7743V29.6269C2.54551 29.3321 2.54551 29.1847 2.39577 28.8899C2.39577 28.7425 2.39577 28.5951 2.39577 28.4477C2.24603 27.5633 2.24603 26.8264 2.24603 25.942C2.24603 21.8148 3.29421 17.6876 5.39056 14.1501C5.39056 14.1501 5.39056 14.0027 5.5403 14.0027C5.39056 13.5605 5.5403 13.2657 5.83978 12.9709C7.33718 10.7599 9.13405 8.84369 11.0807 7.22231C11.2304 7.07491 11.3801 6.92751 11.5299 6.92751C11.8294 6.63271 11.9791 6.48531 12.1288 6.33791C12.1288 6.33791 12.1288 6.33791 12.2786 6.33791C12.5781 6.04312 12.8775 5.89572 13.177 5.60092C13.177 5.60092 13.177 5.60092 13.3268 5.60092C17.22 3.24254 21.7122 1.91595 26.3541 1.91595C26.5038 1.91595 26.8033 1.91595 26.9531 1.91595C27.2525 1.91595 27.4023 1.91595 27.7018 1.91595C28.0012 1.91595 28.151 1.91595 28.4505 1.91595H28.6002C28.8997 1.91595 29.1992 1.91595 29.4986 2.06335C29.6484 2.06335 29.9479 2.06335 30.0976 2.21074C33.0924 2.65294 35.9374 3.68473 38.6327 5.15872C38.9322 5.30612 39.3814 5.60092 39.6809 5.74832C39.8307 5.89572 40.1301 6.04312 40.2799 6.19051C42.6757 7.8119 44.7721 9.87549 46.4192 12.2339C46.7187 12.5287 46.8684 12.9709 47.1679 13.4131L46.2695 13.8553L36.5364 19.309L36.0872 19.6038L35.638 19.8986C35.638 19.7512 35.4882 19.7512 35.4882 19.6038C35.3385 19.4564 35.1887 19.1616 35.039 19.0142C32.9426 16.5084 29.7981 14.887 26.3541 14.887C24.5572 14.887 22.9101 15.3292 21.4127 16.0662C21.1132 16.2136 20.664 16.361 20.3645 16.6558C19.7656 16.9506 19.3163 17.3928 18.8671 17.835C18.5676 17.9824 18.4179 18.2772 18.2682 18.4246C17.8189 18.8668 17.5195 19.309 17.0702 19.8986C17.0702 19.8986 17.0702 20.046 16.9205 20.046C16.7708 20.1934 16.7708 20.3408 16.621 20.4882C16.1718 21.3726 15.7226 22.257 15.4231 23.2888C15.2734 23.8784 15.1236 24.468 15.1236 25.0576C15.1236 25.3524 15.1236 25.6472 15.1236 25.942C15.1236 26.679 15.1236 27.2686 15.2734 28.0055C15.4231 28.7425 15.5729 29.3321 15.8723 29.9217C16.0221 30.0691 16.0221 30.3639 16.1718 30.5113C16.3216 30.8061 16.4713 30.9535 16.621 31.2483C17.8189 33.3119 19.7656 34.9333 22.0117 35.9651C22.1614 36.1125 22.4609 36.1125 22.6106 36.1125C22.7604 36.1125 23.0598 36.2599 23.2096 36.2599C23.3593 36.2599 23.5091 36.4073 23.6588 36.4073C24.4075 36.5547 25.3059 36.7021 26.0546 36.7021C29.6484 36.7021 32.9426 35.0807 35.039 32.2801C35.1887 32.1327 35.3385 31.9853 35.3385 31.8379L35.638 31.9853L46.1197 37.8813H46.2695L47.0182 38.3235L46.8684 38.4709C46.7187 38.6183 46.7187 38.7657 46.5689 38.9131C44.4726 42.3032 41.3281 45.1038 37.7343 47.02Z" fill="url(#paint0_linear)"/>
<path d="M15.5729 25.9419L11.3802 5.60089L40.5794 5.15869L35.7877 20.783L35.039 20.6356L39.681 5.74829L12.1289 6.33788L16.1719 25.7945L15.5729 25.9419Z" fill="url(#paint1_linear)"/>
<path d="M37.8841 48.0515C37.8841 48.0515 37.7344 48.0515 37.7344 48.1989L36.5365 47.6093L29.9479 44.2192L29.0495 43.777L28.4505 43.4822L28.3008 43.3348L22.461 40.3868L22.1615 40.2394L21.862 40.092L20.9636 39.6498L13.0274 35.67L12.1289 35.3752L11.53 35.0804L11.2305 34.933L2.54559 30.5111H2.39585L1.19794 29.9215L0.748718 29.7741L1.0482 29.4793L2.09637 28.8897L2.39585 28.7423L10.6315 23.4359L11.2305 23.1411L11.8294 22.8463L12.2787 22.5515L14.5248 21.0776L15.1237 20.6354L16.9206 19.4562L18.2682 18.5718L19.1667 17.9822H19.3164L19.6159 18.277L19.7656 18.4244L17.3698 19.8984H17.2201L15.4232 21.0776L14.8242 21.5198L12.8776 22.6989L12.4284 22.9937L11.8294 23.2885L11.2305 23.7307L2.99481 29.0371L2.24611 29.4793H2.09637L2.24611 29.6267L2.84507 29.9215L11.53 34.3435L11.9792 34.4909L12.5781 34.7856L13.1771 35.0804L21.862 39.355L22.1615 39.5024L22.461 39.7972L23.2097 40.2394L28.4505 42.8926L29.0495 43.1874L29.7982 43.4822L30.2474 43.777L37.1354 47.3145L36.0873 39.6498V39.5024V39.0602V38.9128L35.3386 32.5747L35.1888 31.3955L35.7878 31.2481L35.9375 32.1325L36.836 38.7654L36.9857 39.355L38.0339 47.1672L37.8841 48.0515Z" fill="url(#paint2_linear)"/>
<path d="M47.9166 38.4713H47.0182H46.4192L36.8359 39.2082H36.5364H36.0872H35.039L23.2096 40.0926H22.3112H22.0117H21.7122L7.63668 41.2718L6.28902 41.4192L6.13928 41.2718L6.88798 40.3874L11.2304 35.3759L11.5299 34.9337L11.9791 34.4915L12.4283 34.0493L16.0221 29.7747L16.1718 29.6273L16.6211 30.0695L16.4713 30.3643L16.3216 30.5117L12.8776 34.3441L12.5781 34.7863L12.1289 35.3759L11.6796 35.9655L7.48694 40.6822L20.8138 39.7978H21.8619H22.1614H22.6106L36.0872 38.766H36.6862L46.2695 38.0291H46.4192L47.9166 37.8817V38.4713Z" fill="url(#paint3_linear)"/>
<path d="M19.0168 50.1153L22.9101 35.6702L23.509 35.8176L20.065 48.6413L36.2369 38.6181L36.5364 39.2077L19.0168 50.1153Z" fill="url(#paint4_linear)"/>
<path d="M48.5156 13.5609L46.4193 12.2343L40.28 8.40192L39.681 8.10713L39.0821 7.81233L38.6328 7.51753L36.0873 5.89614L35.0391 5.30655L30.0977 2.21117L29.6485 1.91638L28.1511 1.03198L27.7018 1.91638L27.4024 2.50597L25.905 5.45395L25.6055 6.04354L22.461 12.3817L22.1615 12.9713H21.4128H14.0755H13.4766H12.8776H12.2787H5.83986H4.49221C4.49221 12.9713 4.49221 13.1187 4.34247 13.1187L5.09117 14.1505L10.931 22.5522L11.2305 22.9944L11.53 23.584L11.9792 24.0262L16.0222 29.7748L16.3216 30.217L16.9206 30.9539L17.5195 30.6591L15.5729 27.7112L12.5781 23.4366L12.1289 22.847L11.8294 22.2574L11.53 22.11L5.54038 13.5609H12.1289H12.8776H13.4766H13.9258H21.263H21.7123L21.5625 14.0031L20.3646 16.5089L20.2149 16.9511L20.8138 17.2459L21.4128 15.9193L22.3112 14.2979L22.6107 13.5609H23.3594L37.1354 13.7083H37.8841H46.2696H48.3659L48.6654 13.5609H48.5156ZM38.0339 13.1187H37.2852L23.2097 12.9713H22.7604L22.9102 12.5291L26.2044 5.89614L26.5039 5.30655L27.8516 2.65337L28.4505 1.91638V1.76898L28.6003 1.91638L29.349 2.35857L33.8412 5.15915L34.8893 5.89614L38.1836 7.95973L38.9323 8.40192L39.5313 8.69672L39.9805 8.99152L46.7188 13.2661L38.0339 13.1187Z" fill="url(#paint5_linear)"/>
<path d="M28.3008 2.94798C29.1278 2.94798 29.7982 2.28805 29.7982 1.47399C29.7982 0.659927 29.1278 0 28.3008 0C27.4738 0 26.8034 0.659927 26.8034 1.47399C26.8034 2.28805 27.4738 2.94798 28.3008 2.94798Z" fill="url(#paint6_linear)"/>
<path d="M35.4882 21.8153C36.3152 21.8153 36.9856 21.1554 36.9856 20.3413C36.9856 19.5272 36.3152 18.8673 35.4882 18.8673C34.6612 18.8673 33.9908 19.5272 33.9908 20.3413C33.9908 21.1554 34.6612 21.8153 35.4882 21.8153Z" fill="url(#paint7_linear)"/>
<path d="M18.2681 20.636C19.0951 20.636 19.7655 19.976 19.7655 19.162C19.7655 18.3479 19.0951 17.688 18.2681 17.688C17.4412 17.688 16.7708 18.3479 16.7708 19.162C16.7708 19.976 17.4412 20.636 18.2681 20.636Z" fill="url(#paint8_linear)"/>
<path d="M11.8295 7.36961C12.6565 7.36961 13.3269 6.70968 13.3269 5.89562C13.3269 5.08156 12.6565 4.42163 11.8295 4.42163C11.0025 4.42163 10.3321 5.08156 10.3321 5.89562C10.3321 6.70968 11.0025 7.36961 11.8295 7.36961Z" fill="url(#paint9_linear)"/>
<path d="M1.4974 31.1012C2.32438 31.1012 2.99479 30.4412 2.99479 29.6272C2.99479 28.8131 2.32438 28.1532 1.4974 28.1532C0.670407 28.1532 0 28.8131 0 29.6272C0 30.4412 0.670407 31.1012 1.4974 31.1012Z" fill="url(#paint10_linear)"/>
<path d="M12.2786 36.1125C12.8575 36.1125 13.3268 35.6506 13.3268 35.0807C13.3268 34.5109 12.8575 34.049 12.2786 34.049C11.6998 34.049 11.2305 34.5109 11.2305 35.0807C11.2305 35.6506 11.6998 36.1125 12.2786 36.1125Z" fill="url(#paint11_linear)"/>
<path d="M29.1993 44.6617C29.7782 44.6617 30.2475 44.1998 30.2475 43.6299C30.2475 43.0601 29.7782 42.5981 29.1993 42.5981C28.6204 42.5981 28.1511 43.0601 28.1511 43.6299C28.1511 44.1998 28.6204 44.6617 29.1993 44.6617Z" fill="url(#paint12_linear)"/>
<path d="M23.2097 36.7026C23.7886 36.7026 24.2579 36.2407 24.2579 35.6708C24.2579 35.101 23.7886 34.639 23.2097 34.639C22.6308 34.639 22.1616 35.101 22.1616 35.6708C22.1616 36.2407 22.6308 36.7026 23.2097 36.7026Z" fill="url(#paint13_linear)"/>
<path d="M11.6796 24.1732C12.2585 24.1732 12.7278 23.7113 12.7278 23.1414C12.7278 22.5716 12.2585 22.1096 11.6796 22.1096C11.1008 22.1096 10.6315 22.5716 10.6315 23.1414C10.6315 23.7113 11.1008 24.1732 11.6796 24.1732Z" fill="url(#paint14_linear)"/>
<path d="M13.177 14.2981C13.7559 14.2981 14.2252 13.8361 14.2252 13.2663C14.2252 12.6964 13.7559 12.2345 13.177 12.2345C12.5981 12.2345 12.1288 12.6964 12.1288 13.2663C12.1288 13.8361 12.5981 14.2981 13.177 14.2981Z" fill="url(#paint15_linear)"/>
<path d="M22.461 14.4451C23.0399 14.4451 23.5092 13.9831 23.5092 13.4133C23.5092 12.8434 23.0399 12.3815 22.461 12.3815C21.8821 12.3815 21.4128 12.8434 21.4128 13.4133C21.4128 13.9831 21.8821 14.4451 22.461 14.4451Z" fill="url(#paint16_linear)"/>
<path d="M39.2318 9.28636C39.8107 9.28636 40.28 8.82441 40.28 8.25457C40.28 7.68473 39.8107 7.22278 39.2318 7.22278C38.6529 7.22278 38.1836 7.68473 38.1836 8.25457C38.1836 8.82441 38.6529 9.28636 39.2318 9.28636Z" fill="url(#paint17_linear)"/>
<path d="M19.6159 51.1476C20.4429 51.1476 21.1133 50.4876 21.1133 49.6736C21.1133 48.8595 20.4429 48.1996 19.6159 48.1996C18.7889 48.1996 18.1185 48.8595 18.1185 49.6736C18.1185 50.4876 18.7889 51.1476 19.6159 51.1476Z" fill="url(#paint18_linear)"/>
<path d="M47.767 39.3552C48.594 39.3552 49.2644 38.6953 49.2644 37.8812C49.2644 37.0672 48.594 36.4072 47.767 36.4072C46.94 36.4072 46.2696 37.0672 46.2696 37.8812C46.2696 38.6953 46.94 39.3552 47.767 39.3552Z" fill="url(#paint19_linear)"/>
</g>
<defs>
<linearGradient id="paint0_linear" x1="14.2062" y1="2.10344" x2="36.8417" y2="47.8723" gradientUnits="userSpaceOnUse">
<stop stop-color="#FBB03B"/>
<stop offset="0.5258" stop-color="#ED1C24"/>
<stop offset="1" stop-color="#FF00AD"/>
</linearGradient>
<linearGradient id="paint1_linear" x1="19.806" y1="-0.666069" x2="42.4414" y2="45.1028" gradientUnits="userSpaceOnUse">
<stop stop-color="#FBB03B"/>
<stop offset="0.5258" stop-color="#ED1C24"/>
<stop offset="1" stop-color="#FF00AD"/>
</linearGradient>
<linearGradient id="paint2_linear" x1="5.95711" y1="6.1829" x2="28.5927" y2="51.9518" gradientUnits="userSpaceOnUse">
<stop stop-color="#FBB03B"/>
<stop offset="0.5258" stop-color="#ED1C24"/>
<stop offset="1" stop-color="#FF00AD"/>
</linearGradient>
<linearGradient id="paint3_linear" x1="9.22991" y1="4.5648" x2="31.8655" y2="50.3337" gradientUnits="userSpaceOnUse">
<stop stop-color="#FBB03B"/>
<stop offset="0.5258" stop-color="#ED1C24"/>
<stop offset="1" stop-color="#FF00AD"/>
</linearGradient>
<linearGradient id="paint4_linear" x1="7.7118" y1="5.31513" x2="30.3474" y2="51.084" gradientUnits="userSpaceOnUse">
<stop stop-color="#FBB03B"/>
<stop offset="0.5258" stop-color="#ED1C24"/>
<stop offset="1" stop-color="#FF00AD"/>
</linearGradient>
<linearGradient id="paint5_linear" x1="19.4445" y1="-0.486815" x2="42.08" y2="45.282" gradientUnits="userSpaceOnUse">
<stop stop-color="#FBB03B"/>
<stop offset="0.5258" stop-color="#ED1C24"/>
<stop offset="1" stop-color="#FF00AD"/>
</linearGradient>
<linearGradient id="paint6_linear" x1="25.775" y1="-3.61776" x2="48.4097" y2="42.1493" gradientUnits="userSpaceOnUse">
<stop stop-color="#FBB03B"/>
<stop offset="0.5258" stop-color="#ED1C24"/>
<stop offset="1" stop-color="#FF00AD"/>
</linearGradient>
<linearGradient id="paint7_linear" x1="23.7722" y1="-2.62711" x2="46.4069" y2="43.1401" gradientUnits="userSpaceOnUse">
<stop stop-color="#FBB03B"/>
<stop offset="0.5258" stop-color="#ED1C24"/>
<stop offset="1" stop-color="#FF00AD"/>
</linearGradient>
<linearGradient id="paint8_linear" x1="10.5504" y1="3.91166" x2="33.1851" y2="49.6789" gradientUnits="userSpaceOnUse">
<stop stop-color="#FBB03B"/>
<stop offset="0.5258" stop-color="#ED1C24"/>
<stop offset="1" stop-color="#FF00AD"/>
</linearGradient>
<linearGradient id="paint9_linear" x1="10.7151" y1="3.82982" x2="33.3499" y2="49.597" gradientUnits="userSpaceOnUse">
<stop stop-color="#FBB03B"/>
<stop offset="0.5258" stop-color="#ED1C24"/>
<stop offset="1" stop-color="#FF00AD"/>
</linearGradient>
<linearGradient id="paint10_linear" x1="-7.18885" y1="12.6849" x2="15.4458" y2="58.4521" gradientUnits="userSpaceOnUse">
<stop stop-color="#FBB03B"/>
<stop offset="0.5258" stop-color="#ED1C24"/>
<stop offset="1" stop-color="#FF00AD"/>
</linearGradient>
<linearGradient id="paint11_linear" x1="-0.820115" y1="9.53491" x2="21.8154" y2="55.3037" gradientUnits="userSpaceOnUse">
<stop stop-color="#FBB03B"/>
<stop offset="0.5258" stop-color="#ED1C24"/>
<stop offset="1" stop-color="#FF00AD"/>
</linearGradient>
<linearGradient id="paint12_linear" x1="9.30414" y1="4.52798" x2="31.9395" y2="50.2968" gradientUnits="userSpaceOnUse">
<stop stop-color="#FBB03B"/>
<stop offset="0.5258" stop-color="#ED1C24"/>
<stop offset="1" stop-color="#FF00AD"/>
</linearGradient>
<linearGradient id="paint13_linear" x1="7.70956" y1="5.31699" x2="30.3449" y2="51.0859" gradientUnits="userSpaceOnUse">
<stop stop-color="#FBB03B"/>
<stop offset="0.5258" stop-color="#ED1C24"/>
<stop offset="1" stop-color="#FF00AD"/>
</linearGradient>
<linearGradient id="paint14_linear" x1="3.64342" y1="7.32743" x2="26.2789" y2="53.0963" gradientUnits="userSpaceOnUse">
<stop stop-color="#FBB03B"/>
<stop offset="0.5258" stop-color="#ED1C24"/>
<stop offset="1" stop-color="#FF00AD"/>
</linearGradient>
<linearGradient id="paint15_linear" x1="8.84895" y1="4.75356" x2="31.4845" y2="50.5224" gradientUnits="userSpaceOnUse">
<stop stop-color="#FBB03B"/>
<stop offset="0.5258" stop-color="#ED1C24"/>
<stop offset="1" stop-color="#FF00AD"/>
</linearGradient>
<linearGradient id="paint16_linear" x1="16.151" y1="1.14186" x2="38.7865" y2="46.9107" gradientUnits="userSpaceOnUse">
<stop stop-color="#FBB03B"/>
<stop offset="0.5258" stop-color="#ED1C24"/>
<stop offset="1" stop-color="#FF00AD"/>
</linearGradient>
<linearGradient id="paint17_linear" x1="31.6844" y1="-6.54014" x2="54.3198" y2="39.2287" gradientUnits="userSpaceOnUse">
<stop stop-color="#FBB03B"/>
<stop offset="0.5258" stop-color="#ED1C24"/>
<stop offset="1" stop-color="#FF00AD"/>
</linearGradient>
<linearGradient id="paint18_linear" x1="-0.822559" y1="9.5365" x2="21.812" y2="55.3037" gradientUnits="userSpaceOnUse">
<stop stop-color="#FBB03B"/>
<stop offset="0.5258" stop-color="#ED1C24"/>
<stop offset="1" stop-color="#FF00AD"/>
</linearGradient>
<linearGradient id="paint19_linear" x1="26.3888" y1="-3.92166" x2="49.0235" y2="41.8455" gradientUnits="userSpaceOnUse">
<stop stop-color="#FBB03B"/>
<stop offset="0.5258" stop-color="#ED1C24"/>
<stop offset="1" stop-color="#FF00AD"/>
</linearGradient>
<clipPath id="clip0">
<rect width="230" height="51" fill="white"/>
</clipPath>
</defs>
</svg>
