<svg width="70" height="52" viewBox="0 0 70 52" fill="none" xmlns="http://www.w3.org/2000/svg">
<g clip-path="url(#clip0)">
<path d="M0 47.2148C0 44.5606 2.05443 42.3923 5.22946 42.3923C5.97652 42.3923 6.79829 42.5045 7.84418 42.8783V44.6353C6.64888 44.112 5.86446 43.9998 5.22946 43.9998C3.10032 43.9998 1.86766 45.4578 1.86766 47.2148C1.86766 48.9344 3.10032 50.3923 5.22946 50.3923C5.86446 50.3923 6.64888 50.2428 7.84418 49.7568V51.5138C6.76094 51.8877 5.93917 51.9998 5.22946 51.9998C2.05443 51.9998 0 49.869 0 47.2148Z" fill="white"/>
<path d="M15.8378 49.7193H11.729L10.9446 51.8502H9.0022L12.5881 42.5417H15.0161L18.5646 51.8502H16.6223L15.8378 49.7193ZM15.3523 48.3361L13.7834 44.0371L12.2146 48.3361H15.3523Z" fill="white"/>
<path d="M26.222 50.28V51.8875H19.8346V42.5791H21.6649V50.28H26.222Z" fill="white"/>
<path d="M26.969 47.2148C26.969 44.5606 29.0234 42.3923 32.1984 42.3923C32.9455 42.3923 33.7673 42.5045 34.8132 42.8783V44.6353C33.6179 44.112 32.8335 43.9998 32.1984 43.9998C30.0693 43.9998 28.8367 45.4578 28.8367 47.2148C28.8367 48.9344 30.0693 50.3923 32.1984 50.3923C32.8335 50.3923 33.6179 50.2428 34.8132 49.7568V51.5138C33.7299 51.8877 32.9082 51.9998 32.1984 51.9998C29.0234 51.9998 26.969 49.869 26.969 47.2148Z" fill="white"/>
<path d="M44.301 42.5417V48.1866C44.301 50.5044 42.7695 51.9997 40.4162 51.9997C38.063 51.9997 36.5315 50.467 36.5315 48.1866V42.5417H38.3244V48.1492C38.3244 49.495 39.1089 50.3922 40.4162 50.3922C41.7236 50.3922 42.508 49.495 42.508 48.1492V42.5417H44.301Z" fill="white"/>
<path d="M52.444 50.28V51.8875H46.0566V42.5791H47.8496V50.28H52.444Z" fill="white"/>
<path d="M61.6702 42.5417V48.1866C61.6702 50.5044 60.1387 51.9997 57.7855 51.9997C55.4322 51.9997 53.9008 50.467 53.9008 48.1866V42.5417H55.6937V48.1492C55.6937 49.495 56.4781 50.3922 57.7855 50.3922C59.0929 50.3922 59.8773 49.495 59.8773 48.1492V42.5417H61.6702Z" fill="white"/>
<path d="M63.1643 51.2521V49.2334C64.2476 49.9437 65.5549 50.4671 66.5261 50.4671C67.4226 50.4671 68.0202 49.9811 68.0202 49.3082C68.0202 47.2521 63.2017 48.3362 63.2017 45.1213C63.2017 43.4764 64.5837 42.4297 66.7129 42.4297C67.5346 42.4297 68.6552 42.5792 69.6638 42.8783V44.7848C68.5432 44.2241 67.5346 43.925 66.7129 43.925C65.779 43.925 65.2187 44.3736 65.2187 45.0091C65.2187 46.9157 70 45.7942 70 49.1213C70 50.7288 68.7673 52.0372 66.6382 52.0372C65.8164 51.9998 64.4717 51.8129 63.1643 51.2521Z" fill="white"/>
<path d="M42.7321 22.3928L42.5454 22.7292C41.238 24.9722 38.8474 26.3554 36.27 26.3554C35.7471 26.3554 35.2241 26.2806 34.7385 26.1685C34.3276 26.0937 33.9541 25.9816 33.5806 25.7946C32.0864 25.1965 30.8538 24.1124 30.032 22.6918C29.397 21.6077 29.0608 20.3367 29.0608 19.0657C29.0608 17.7946 29.397 16.5236 30.032 15.4395C30.1067 15.3274 30.1814 15.2152 30.2561 15.1031C30.5923 14.5797 31.0032 14.0937 31.4514 13.6825C32.7588 12.4862 34.4771 11.8133 36.3074 11.8133C38.5486 11.8133 40.6777 12.8601 42.0224 14.6171C42.2092 14.8788 42.3959 15.1404 42.5827 15.4395L42.7695 15.776L44.0395 15.0657L52.3693 10.2432L52.5187 10.1311L52.444 9.98156L52.3319 9.75727C49.4184 4.86007 44.3757 1.53297 38.7353 0.747921C38.1003 0.673155 37.428 0.598389 36.793 0.598389C36.6062 0.598389 36.4568 0.598389 36.27 0.598389C32.6841 0.598389 29.2476 1.64512 26.334 3.51428C25.7737 3.88811 25.2134 4.26194 24.7279 4.67315C23.047 6.01895 21.5902 7.66381 20.4696 9.53297C20.4322 9.57035 20.4322 9.60773 20.3949 9.64511C20.3575 9.71988 20.3202 9.79465 20.2828 9.83203C18.6766 12.6358 17.8175 15.8133 17.8175 19.0657C17.8175 19.6638 17.8549 20.2619 17.8922 20.8601C17.9296 21.1591 17.9669 21.4208 18.0043 21.7199C18.0043 21.832 18.0416 21.9442 18.0416 22.0563C18.079 22.3554 18.1537 22.6171 18.191 22.9161C18.6019 24.8227 19.2743 26.6545 20.2828 28.3367C20.6937 29.0844 21.1793 29.7573 21.7022 30.4302C21.7396 30.4675 21.777 30.5423 21.8143 30.5797C24.0555 33.3834 27.0438 35.4769 30.4056 36.6358C30.5923 36.7105 30.8164 36.7853 31.0406 36.8227C31.1153 36.8601 31.19 36.8601 31.2273 36.8974C31.6009 37.0096 31.9744 37.1217 32.3853 37.1965C33.6553 37.4956 35 37.6077 36.3447 37.6077C39.2956 37.6077 42.1345 36.8974 44.6745 35.6264C44.7118 35.589 44.7492 35.589 44.7866 35.5517C47.6628 34.0563 50.1281 31.8507 51.921 29.047C52.0704 28.8227 52.2199 28.561 52.3693 28.3367L52.556 28.0003L51.2113 27.2152L42.7321 22.3928ZM44.5998 34.7292C44.301 34.8788 44.0021 35.0283 43.7033 35.1778C41.3874 36.2619 38.8847 36.8227 36.27 36.8227C34.9626 36.8227 33.6553 36.6731 32.4226 36.3741C32.3106 36.3367 32.1985 36.3367 32.0864 36.2993C31.7876 36.2245 31.4888 36.1498 31.19 36.0376C31.0406 36.0003 30.8538 35.9255 30.7044 35.8881C27.6041 34.8788 24.8399 33.0096 22.7481 30.5049C22.5614 30.2806 22.3746 30.0563 22.1878 29.832C21.7396 29.2339 21.3287 28.5984 20.9552 27.9629C19.984 26.2806 19.3116 24.4862 18.9381 22.6171C18.9381 22.5797 18.9381 22.5423 18.9381 22.5423C18.9007 22.3554 18.8634 22.1685 18.826 21.9442C18.826 21.9068 18.826 21.832 18.7887 21.7946C18.7513 21.6077 18.7513 21.4582 18.714 21.2713C18.714 21.1591 18.6766 21.0844 18.6766 20.9722C18.6019 20.3741 18.5646 19.7386 18.5646 19.1031C18.5646 16.0376 19.349 13.0096 20.8431 10.3928C20.8805 10.3554 20.8805 10.318 20.9178 10.2432C21.0672 10.0189 21.1793 9.79465 21.3287 9.57035C22.3746 7.92549 23.682 6.46755 25.1761 5.30867C25.2882 5.2339 25.4002 5.12175 25.5123 5.04699C25.6617 4.93484 25.7737 4.82269 25.9232 4.74792C25.9605 4.71054 25.9605 4.71054 25.9979 4.71054C26.222 4.561 26.4461 4.41147 26.6702 4.26194C26.7076 4.26194 26.7076 4.22456 26.7449 4.22456C29.5838 2.39278 32.8709 1.38344 36.27 1.38344C36.4194 1.38344 36.6062 1.38344 36.7556 1.38344C36.9424 1.38344 37.1291 1.38344 37.3159 1.42082C37.5027 1.42082 37.6521 1.4582 37.8389 1.4582C37.8762 1.4582 37.9509 1.4582 37.9883 1.4582C38.2124 1.49558 38.4739 1.49558 38.698 1.53297C38.8474 1.57035 38.9594 1.57035 39.1089 1.60773C41.3127 1.94418 43.4045 2.72923 45.2721 3.85072C45.5336 4.00026 45.7577 4.14979 46.0192 4.29932C46.0192 4.29932 46.0566 4.29932 46.0566 4.33671C46.206 4.41147 46.318 4.52362 46.4674 4.59839C48.1857 5.79465 49.7172 7.32736 50.9125 9.08437C51.0993 9.34605 51.286 9.60773 51.4354 9.9068L50.8004 10.2806L43.7033 14.3554L43.3298 14.5797L42.9936 14.7666C42.9562 14.6918 42.8815 14.6171 42.8442 14.5423C42.7321 14.3928 42.6201 14.2432 42.508 14.1311C41.0139 12.2246 38.698 11.1031 36.2327 11.1031C34.9626 11.1031 33.7673 11.4021 32.6841 11.9255C32.4226 12.0376 32.1985 12.1872 31.9744 12.3367C31.5635 12.5984 31.19 12.8601 30.8538 13.1965C30.7044 13.346 30.5176 13.4956 30.3682 13.6825C30.0694 14.0189 29.8079 14.3554 29.5464 14.7292C29.5091 14.7666 29.5091 14.804 29.4717 14.804C29.397 14.9161 29.3597 14.9909 29.285 15.1031C28.9114 15.7386 28.6499 16.4489 28.4632 17.1591C28.3511 17.6077 28.2764 18.0189 28.2391 18.4675C28.2391 18.6918 28.2017 18.8788 28.2017 19.1031C28.2017 19.6264 28.2391 20.1124 28.3511 20.6358C28.4632 21.1217 28.5752 21.6077 28.762 22.0937C28.762 22.0937 28.762 22.1311 28.7994 22.1311C28.8741 22.2806 28.9114 22.4302 28.9861 22.5797C29.0608 22.7666 29.1729 22.9535 29.285 23.1404C30.1814 24.7105 31.6009 25.9068 33.2444 26.5797C33.3938 26.6545 33.5432 26.6918 33.6926 26.7292C33.842 26.7666 33.9915 26.8414 34.1409 26.8788C34.2529 26.9161 34.365 26.9535 34.5144 26.9535C35.0747 27.0657 35.6724 27.1404 36.2327 27.1404C38.81 27.1404 41.2006 25.9068 42.7321 23.8507C42.8068 23.7386 42.9189 23.589 42.9936 23.4769L43.1804 23.589L50.8004 27.9255L50.8751 27.9629L51.3981 28.2619C51.3607 28.2993 51.3234 28.3741 51.3234 28.4115C51.2487 28.5236 51.174 28.6358 51.1366 28.7479C49.4557 31.29 47.2145 33.3087 44.5998 34.7292Z" fill="url(#paint0_linear)"/>
<path d="M28.4259 19.1401L25.4003 4.18682L46.6543 3.81299L43.1057 15.3644L42.6575 15.2149L46.0193 4.29897L25.9606 4.63542L28.8741 19.0653L28.4259 19.1401Z" fill="url(#paint1_linear)"/>
<path d="M44.7119 35.5514C44.6745 35.5888 44.6371 35.5888 44.5998 35.6262L43.7033 35.1402L38.9221 32.7103L38.2871 32.3739L37.8015 32.1122L37.6521 32.0374L33.3565 29.8318L33.1323 29.7197L32.9456 29.6075L32.3106 29.3084L26.5582 26.3925L25.9605 26.0935L25.5123 25.8692L25.2508 25.7197L18.9381 22.5047L18.8634 22.4673L18.0043 22.0561L17.7054 21.9066L17.9669 21.7197L18.714 21.2337L18.9007 21.1215L24.9146 17.1963L25.3255 16.9346L25.7364 16.6729L26.0726 16.4486L27.6788 15.4019L28.0897 15.1402L29.397 14.2804L30.3682 13.6449L30.9659 13.2337L31.0406 13.1963L31.2273 13.458L31.302 13.6075L29.5464 14.729L29.5091 14.7664L28.2017 15.6262L27.7908 15.8879L26.334 16.8225L25.9979 17.0468L25.587 17.3084L25.1387 17.6075L19.1622 21.4954L18.7887 21.757L18.6766 21.8318L18.826 21.9066L19.1996 22.0935L25.5496 25.3458L25.8858 25.5327L26.334 25.757L26.7823 25.9813L33.095 29.1963L33.2818 29.2711L33.5432 29.4206L34.1035 29.7197L37.9509 31.701L38.3244 31.8879L38.81 32.1496L39.1836 32.3365L44.2263 34.9159L43.4418 29.1589V29.0094L43.4045 28.6355V28.5234L42.8068 23.8131L42.6948 22.9533L43.1804 22.8785L43.2551 23.5514L43.8901 28.486L43.9648 28.972L44.6745 34.6916L44.7119 35.5514Z" fill="url(#paint2_linear)"/>
<path d="M51.9584 28.3738L51.3234 28.4112L50.9125 28.4486L43.8901 28.972H43.7033L43.4045 29.0094L42.6948 29.0467L34.0288 29.6823L33.3938 29.7196L33.1324 29.757H32.9082L22.7482 30.5047L21.777 30.5795C21.7396 30.5421 21.7023 30.4673 21.6649 30.4299L22.1879 29.8318L25.3255 26.1682L25.5497 25.9066L25.8485 25.5327L26.1473 25.1963L28.7994 22.0935L28.9114 21.9813L29.285 22.2804L29.0982 22.5047L29.0235 22.5795L26.5582 25.4206L26.2967 25.7196L25.9979 26.0935L25.6244 26.5421L22.6361 30.0187L32.3106 29.3084L33.0203 29.271H33.2071L33.5059 29.2337L43.3298 28.5234L43.8154 28.486L50.8005 27.9626H50.8752L51.9211 27.8879L51.9584 28.3738Z" fill="url(#paint3_linear)"/>
<path d="M30.9286 37.0468L33.8048 26.3552L34.2904 26.4674L31.713 36.0001L43.4793 28.5608L43.7407 28.972L30.9286 37.0468Z" fill="url(#paint4_linear)"/>
<path d="M52.4066 10.0563L50.8751 9.08431L46.3928 6.24319L45.9819 5.98151L45.571 5.71982L45.2348 5.49553L43.3671 4.29926L42.6574 3.85067L39.0715 1.57029L38.7353 1.34599L37.6521 0.673096L37.3159 1.38338L37.0918 1.86936L36.0459 4.0002L35.8218 4.48618L33.5432 9.19646L33.3191 9.68244H32.7588L27.4547 9.64506H26.9691H26.4835H25.9979L21.3287 9.60767H20.3949C20.3575 9.64506 20.3575 9.68244 20.3202 9.71982L20.8058 10.4301L25.0267 16.6357L25.2508 16.9722L25.5123 17.346L25.8111 17.7946L28.7247 22.0937L28.762 22.131L29.0235 22.5049L29.397 23.0656L29.8079 22.8039L28.3885 20.6357L26.2594 17.4955L25.9979 17.0843L25.7364 16.6731L25.5123 16.3366L21.2167 10.0189L26.0352 10.0563H26.5955H27.0811H27.4173L32.7215 10.0937H33.0576L32.9082 10.3927L32.0118 12.2619L31.8623 12.5983L32.2732 12.8226L32.7215 11.888L33.3191 10.6544L33.5806 10.131H34.1409L44.1889 10.2058H44.6745L50.7631 10.2432H52.3319L52.4813 10.131L52.4066 10.0563ZM44.8239 9.75721H44.3383L34.1035 9.68244H33.8047L33.9541 9.42076L36.3447 4.48618L36.5689 4.0002L37.5027 2.09366L37.8015 1.49553L37.8389 1.42076L37.9509 1.49553L38.4739 1.83197L41.7983 3.92543L42.508 4.37403L44.936 5.90674L45.4216 6.20581L45.8325 6.46749L46.1686 6.69179L51.0993 9.83197L44.8239 9.75721Z" fill="url(#paint5_linear)"/>
<path d="M37.7269 2.09346C38.3046 2.09346 38.7728 1.62482 38.7728 1.04673C38.7728 0.468636 38.3046 0 37.7269 0C37.1493 0 36.681 0.468636 36.681 1.04673C36.681 1.62482 37.1493 2.09346 37.7269 2.09346Z" fill="url(#paint6_linear)"/>
<path d="M42.9563 16.1123C43.5339 16.1123 44.0022 15.6436 44.0022 15.0655C44.0022 14.4874 43.5339 14.0188 42.9563 14.0188C42.3787 14.0188 41.9104 14.4874 41.9104 15.0655C41.9104 15.6436 42.3787 16.1123 42.9563 16.1123Z" fill="url(#paint7_linear)"/>
<path d="M30.4429 15.1777C31.0205 15.1777 31.4888 14.709 31.4888 14.131C31.4888 13.5529 31.0205 13.0842 30.4429 13.0842C29.8652 13.0842 29.397 13.5529 29.397 14.131C29.397 14.709 29.8652 15.1777 30.4429 15.1777Z" fill="url(#paint8_linear)"/>
<path d="M25.6617 5.38313C26.2394 5.38313 26.7076 4.91449 26.7076 4.3364C26.7076 3.75831 26.2394 3.28967 25.6617 3.28967C25.0841 3.28967 24.6158 3.75831 24.6158 4.3364C24.6158 4.91449 25.0841 5.38313 25.6617 5.38313Z" fill="url(#paint9_linear)"/>
<path d="M18.191 22.9157C18.7687 22.9157 19.2369 22.4471 19.2369 21.869C19.2369 21.2909 18.7687 20.8223 18.191 20.8223C17.6134 20.8223 17.1451 21.2909 17.1451 21.869C17.1451 22.4471 17.6134 22.9157 18.191 22.9157Z" fill="url(#paint10_linear)"/>
<path d="M25.9978 26.6541C26.4104 26.6541 26.7449 26.3194 26.7449 25.9065C26.7449 25.4936 26.4104 25.1588 25.9978 25.1588C25.5852 25.1588 25.2507 25.4936 25.2507 25.9065C25.2507 26.3194 25.5852 26.6541 25.9978 26.6541Z" fill="url(#paint11_linear)"/>
<path d="M38.3992 32.9347C38.8118 32.9347 39.1462 32.5999 39.1462 32.187C39.1462 31.7741 38.8118 31.4393 38.3992 31.4393C37.9866 31.4393 37.6521 31.7741 37.6521 32.187C37.6521 32.5999 37.9866 32.9347 38.3992 32.9347Z" fill="url(#paint12_linear)"/>
<path d="M34.0288 27.1402C34.4414 27.1402 34.7759 26.8055 34.7759 26.3926C34.7759 25.9796 34.4414 25.6449 34.0288 25.6449C33.6162 25.6449 33.2817 25.9796 33.2817 26.3926C33.2817 26.8055 33.6162 27.1402 34.0288 27.1402Z" fill="url(#paint13_linear)"/>
<path d="M25.6243 17.8318C26.0369 17.8318 26.3713 17.497 26.3713 17.0841C26.3713 16.6712 26.0369 16.3364 25.6243 16.3364C25.2117 16.3364 24.8772 16.6712 24.8772 17.0841C24.8772 17.497 25.2117 17.8318 25.6243 17.8318Z" fill="url(#paint14_linear)"/>
<path d="M26.7076 10.5421C27.1202 10.5421 27.4547 10.2073 27.4547 9.79442C27.4547 9.38149 27.1202 9.04675 26.7076 9.04675C26.295 9.04675 25.9606 9.38149 25.9606 9.79442C25.9606 10.2073 26.295 10.5421 26.7076 10.5421Z" fill="url(#paint15_linear)"/>
<path d="M33.4311 10.6543C33.8437 10.6543 34.1782 10.3195 34.1782 9.9066C34.1782 9.49368 33.8437 9.15894 33.4311 9.15894C33.0186 9.15894 32.6841 9.49368 32.6841 9.9066C32.6841 10.3195 33.0186 10.6543 33.4311 10.6543Z" fill="url(#paint16_linear)"/>
<path d="M45.683 6.87863C46.0956 6.87863 46.43 6.54389 46.43 6.13096C46.43 5.71804 46.0956 5.3833 45.683 5.3833C45.2704 5.3833 44.9359 5.71804 44.9359 6.13096C44.9359 6.54389 45.2704 6.87863 45.683 6.87863Z" fill="url(#paint17_linear)"/>
<path d="M31.4142 37.7197C31.9918 37.7197 32.4601 37.251 32.4601 36.6729C32.4601 36.0949 31.9918 35.6262 31.4142 35.6262C30.8365 35.6262 30.3683 36.0949 30.3683 36.6729C30.3683 37.251 30.8365 37.7197 31.4142 37.7197Z" fill="url(#paint18_linear)"/>
<path d="M51.8463 29.0467C52.4239 29.0467 52.8922 28.5781 52.8922 28C52.8922 27.4219 52.4239 26.9532 51.8463 26.9532C51.2687 26.9532 50.8004 27.4219 50.8004 28C50.8004 28.5781 51.2687 29.0467 51.8463 29.0467Z" fill="url(#paint19_linear)"/>
</g>
<defs>
<linearGradient id="paint0_linear" x1="27.4606" y1="1.55529" x2="44.3604" y2="35.1655" gradientUnits="userSpaceOnUse">
<stop stop-color="#FBB03B"/>
<stop offset="0.5258" stop-color="#ED1C24"/>
<stop offset="1" stop-color="#FF00AD"/>
</linearGradient>
<linearGradient id="paint1_linear" x1="31.5321" y1="-0.492245" x2="48.4319" y2="33.118" gradientUnits="userSpaceOnUse">
<stop stop-color="#FBB03B"/>
<stop offset="0.5258" stop-color="#ED1C24"/>
<stop offset="1" stop-color="#FF00AD"/>
</linearGradient>
<linearGradient id="paint2_linear" x1="21.4629" y1="4.57079" x2="38.3628" y2="38.1811" gradientUnits="userSpaceOnUse">
<stop stop-color="#FBB03B"/>
<stop offset="0.5258" stop-color="#ED1C24"/>
<stop offset="1" stop-color="#FF00AD"/>
</linearGradient>
<linearGradient id="paint3_linear" x1="23.8426" y1="3.37425" x2="40.7424" y2="36.9845" gradientUnits="userSpaceOnUse">
<stop stop-color="#FBB03B"/>
<stop offset="0.5258" stop-color="#ED1C24"/>
<stop offset="1" stop-color="#FF00AD"/>
</linearGradient>
<linearGradient id="paint4_linear" x1="22.7389" y1="3.92932" x2="39.6387" y2="37.5396" gradientUnits="userSpaceOnUse">
<stop stop-color="#FBB03B"/>
<stop offset="0.5258" stop-color="#ED1C24"/>
<stop offset="1" stop-color="#FF00AD"/>
</linearGradient>
<linearGradient id="paint5_linear" x1="31.2692" y1="-0.359801" x2="48.169" y2="33.2505" gradientUnits="userSpaceOnUse">
<stop stop-color="#FBB03B"/>
<stop offset="0.5258" stop-color="#ED1C24"/>
<stop offset="1" stop-color="#FF00AD"/>
</linearGradient>
<linearGradient id="paint6_linear" x1="35.872" y1="-2.67432" x2="52.7712" y2="30.9347" gradientUnits="userSpaceOnUse">
<stop stop-color="#FBB03B"/>
<stop offset="0.5258" stop-color="#ED1C24"/>
<stop offset="1" stop-color="#FF00AD"/>
</linearGradient>
<linearGradient id="paint7_linear" x1="34.4159" y1="-1.9421" x2="51.3151" y2="31.6669" gradientUnits="userSpaceOnUse">
<stop stop-color="#FBB03B"/>
<stop offset="0.5258" stop-color="#ED1C24"/>
<stop offset="1" stop-color="#FF00AD"/>
</linearGradient>
<linearGradient id="paint8_linear" x1="24.8026" y1="2.8916" x2="41.7019" y2="36.5006" gradientUnits="userSpaceOnUse">
<stop stop-color="#FBB03B"/>
<stop offset="0.5258" stop-color="#ED1C24"/>
<stop offset="1" stop-color="#FF00AD"/>
</linearGradient>
<linearGradient id="paint9_linear" x1="24.9224" y1="2.83124" x2="41.8216" y2="36.4403" gradientUnits="userSpaceOnUse">
<stop stop-color="#FBB03B"/>
<stop offset="0.5258" stop-color="#ED1C24"/>
<stop offset="1" stop-color="#FF00AD"/>
</linearGradient>
<linearGradient id="paint10_linear" x1="11.9049" y1="9.37655" x2="28.8041" y2="42.9856" gradientUnits="userSpaceOnUse">
<stop stop-color="#FBB03B"/>
<stop offset="0.5258" stop-color="#ED1C24"/>
<stop offset="1" stop-color="#FF00AD"/>
</linearGradient>
<linearGradient id="paint11_linear" x1="16.5353" y1="7.04835" x2="33.4352" y2="40.6586" gradientUnits="userSpaceOnUse">
<stop stop-color="#FBB03B"/>
<stop offset="0.5258" stop-color="#ED1C24"/>
<stop offset="1" stop-color="#FF00AD"/>
</linearGradient>
<linearGradient id="paint12_linear" x1="23.8964" y1="3.34729" x2="40.7963" y2="36.9575" gradientUnits="userSpaceOnUse">
<stop stop-color="#FBB03B"/>
<stop offset="0.5258" stop-color="#ED1C24"/>
<stop offset="1" stop-color="#FF00AD"/>
</linearGradient>
<linearGradient id="paint13_linear" x1="22.737" y1="3.93014" x2="39.6368" y2="37.5405" gradientUnits="userSpaceOnUse">
<stop stop-color="#FBB03B"/>
<stop offset="0.5258" stop-color="#ED1C24"/>
<stop offset="1" stop-color="#FF00AD"/>
</linearGradient>
<linearGradient id="paint14_linear" x1="19.7807" y1="5.41658" x2="36.6805" y2="39.0268" gradientUnits="userSpaceOnUse">
<stop stop-color="#FBB03B"/>
<stop offset="0.5258" stop-color="#ED1C24"/>
<stop offset="1" stop-color="#FF00AD"/>
</linearGradient>
<linearGradient id="paint15_linear" x1="23.5656" y1="3.51356" x2="40.4654" y2="37.1238" gradientUnits="userSpaceOnUse">
<stop stop-color="#FBB03B"/>
<stop offset="0.5258" stop-color="#ED1C24"/>
<stop offset="1" stop-color="#FF00AD"/>
</linearGradient>
<linearGradient id="paint16_linear" x1="28.8746" y1="0.844095" x2="45.7744" y2="34.4544" gradientUnits="userSpaceOnUse">
<stop stop-color="#FBB03B"/>
<stop offset="0.5258" stop-color="#ED1C24"/>
<stop offset="1" stop-color="#FF00AD"/>
</linearGradient>
<linearGradient id="paint17_linear" x1="40.1684" y1="-4.83456" x2="57.0683" y2="28.7756" gradientUnits="userSpaceOnUse">
<stop stop-color="#FBB03B"/>
<stop offset="0.5258" stop-color="#ED1C24"/>
<stop offset="1" stop-color="#FF00AD"/>
</linearGradient>
<linearGradient id="paint18_linear" x1="16.5338" y1="7.04935" x2="33.433" y2="40.6584" gradientUnits="userSpaceOnUse">
<stop stop-color="#FBB03B"/>
<stop offset="0.5258" stop-color="#ED1C24"/>
<stop offset="1" stop-color="#FF00AD"/>
</linearGradient>
<linearGradient id="paint19_linear" x1="36.3181" y1="-2.89872" x2="53.2174" y2="30.7103" gradientUnits="userSpaceOnUse">
<stop stop-color="#FBB03B"/>
<stop offset="0.5258" stop-color="#ED1C24"/>
<stop offset="1" stop-color="#FF00AD"/>
</linearGradient>
<clipPath id="clip0">
<rect width="70" height="52" fill="white"/>
</clipPath>
</defs>
</svg>
