<svg width="316" height="315" viewBox="0 0 316 315" fill="none" xmlns="http://www.w3.org/2000/svg">
<circle opacity="0.1" cx="158" cy="157.104" r="117.5" stroke="#C7880D" stroke-width="15"/>
<circle cx="158" cy="157.104" r="110" fill="#333860"/>
<path d="M144.607 148.624H134.137V154.924C134.617 154.304 135.297 153.814 136.177 153.454C137.057 153.074 138.027 152.884 139.087 152.884C140.567 152.884 141.797 153.204 142.777 153.844C143.757 154.464 144.477 155.294 144.937 156.334C145.417 157.374 145.657 158.524 145.657 159.784C145.657 162.004 145.037 163.804 143.797 165.184C142.557 166.544 140.757 167.224 138.397 167.224C136.177 167.224 134.387 166.634 133.027 165.454C131.667 164.274 130.927 162.704 130.807 160.744H134.167C134.347 161.824 134.787 162.674 135.487 163.294C136.207 163.914 137.117 164.224 138.217 164.224C139.577 164.224 140.597 163.814 141.277 162.994C141.957 162.174 142.297 161.084 142.297 159.724C142.297 158.444 141.947 157.444 141.247 156.724C140.547 155.984 139.547 155.614 138.247 155.614C137.327 155.614 136.517 155.814 135.817 156.214C135.137 156.614 134.637 157.144 134.317 157.804H130.987V145.594H144.607V148.624ZM149.057 156.364C149.057 159.744 149.657 162.394 150.857 164.314C152.057 166.214 154.057 167.164 156.857 167.164C159.657 167.164 161.657 166.204 162.857 164.284C164.057 162.364 164.657 159.724 164.657 156.364C164.657 153.024 164.057 150.404 162.857 148.504C161.657 146.584 159.657 145.624 156.857 145.624C154.057 145.624 152.057 146.574 150.857 148.474C149.657 150.374 149.057 153.004 149.057 156.364ZM161.237 156.364C161.237 158.804 160.937 160.674 160.337 161.974C159.737 163.274 158.577 163.924 156.857 163.924C155.117 163.924 153.947 163.274 153.347 161.974C152.747 160.674 152.447 158.804 152.447 156.364C152.447 153.944 152.747 152.094 153.347 150.814C153.947 149.534 155.117 148.894 156.857 148.894C158.577 148.894 159.737 149.544 160.337 150.844C160.937 152.124 161.237 153.964 161.237 156.364ZM172.079 145.624C173.419 145.624 174.509 146.044 175.349 146.884C176.189 147.704 176.609 148.824 176.609 150.244C176.609 151.664 176.189 152.784 175.349 153.604C174.509 154.424 173.419 154.834 172.079 154.834C170.739 154.834 169.639 154.424 168.779 153.604C167.939 152.784 167.519 151.664 167.519 150.244C167.519 148.824 167.939 147.704 168.779 146.884C169.639 146.044 170.739 145.624 172.079 145.624ZM184.769 145.894L172.799 167.104H169.439L181.439 145.894H184.769ZM169.859 150.244C169.859 151.004 170.059 151.614 170.459 152.074C170.859 152.514 171.389 152.734 172.049 152.734C172.709 152.734 173.239 152.504 173.639 152.044C174.059 151.584 174.269 150.984 174.269 150.244C174.269 149.484 174.059 148.874 173.639 148.414C173.239 147.954 172.709 147.724 172.049 147.724C171.389 147.724 170.859 147.954 170.459 148.414C170.059 148.874 169.859 149.484 169.859 150.244ZM182.159 158.164C183.499 158.164 184.589 158.574 185.429 159.394C186.289 160.214 186.719 161.334 186.719 162.754C186.719 164.174 186.289 165.304 185.429 166.144C184.589 166.964 183.499 167.374 182.159 167.374C180.839 167.374 179.749 166.964 178.889 166.144C178.049 165.304 177.629 164.174 177.629 162.754C177.629 161.354 178.049 160.244 178.889 159.424C179.749 158.584 180.839 158.164 182.159 158.164ZM179.969 162.754C179.969 163.514 180.169 164.124 180.569 164.584C180.969 165.044 181.499 165.274 182.159 165.274C182.819 165.274 183.349 165.044 183.749 164.584C184.169 164.124 184.379 163.514 184.379 162.754C184.379 162.014 184.169 161.414 183.749 160.954C183.349 160.494 182.819 160.264 182.159 160.264C181.499 160.264 180.969 160.494 180.569 160.954C180.169 161.414 179.969 162.014 179.969 162.754Z" fill="white"/>
<mask id="path-4-inside-1" fill="white">
<path d="M125.261 279.288C104.033 273.6 84.6522 262.479 69.0297 247.021C53.4073 231.563 42.0819 212.301 36.1695 191.134C30.257 169.966 29.9616 147.624 35.3123 126.307C40.6631 104.991 51.4752 85.4368 66.6835 69.5711L85.3055 87.4215C73.1986 100.052 64.5913 115.618 60.3318 132.588C56.0722 149.557 56.3074 167.343 61.0141 184.194C65.7208 201.045 74.7366 216.378 87.1733 228.684C99.6099 240.99 115.038 249.843 131.938 254.371L125.261 279.288Z"/>
</mask>
<path d="M125.261 279.288C104.033 273.6 84.6522 262.479 69.0297 247.021C53.4073 231.563 42.0819 212.301 36.1695 191.134C30.257 169.966 29.9616 147.624 35.3123 126.307C40.6631 104.991 51.4752 85.4368 66.6835 69.5711L85.3055 87.4215C73.1986 100.052 64.5913 115.618 60.3318 132.588C56.0722 149.557 56.3074 167.343 61.0141 184.194C65.7208 201.045 74.7366 216.378 87.1733 228.684C99.6099 240.99 115.038 249.843 131.938 254.371L125.261 279.288Z" stroke="#04E38A" stroke-width="40" mask="url(#path-4-inside-1)"/>
<mask id="path-5-inside-2" fill="white">
<path d="M281.905 190.304C276.136 211.832 264.859 231.485 249.183 247.327C233.507 263.17 213.974 274.654 192.509 280.65C171.044 286.646 148.387 286.945 126.77 281.519C105.154 276.093 85.3244 265.129 69.2353 249.706L89.5646 228.498C101.969 240.389 117.257 248.842 133.923 253.025C150.588 257.209 168.057 256.978 184.606 252.355C201.155 247.733 216.214 238.878 228.3 226.664C240.386 214.45 249.08 199.298 253.528 182.7L281.905 190.304Z"/>
</mask>
<path d="M281.905 190.304C276.136 211.832 264.859 231.485 249.183 247.327C233.507 263.17 213.974 274.654 192.509 280.65C171.044 286.646 148.387 286.945 126.77 281.519C105.154 276.093 85.3244 265.129 69.2353 249.706L89.5646 228.498C101.969 240.389 117.257 248.842 133.923 253.025C150.588 257.209 168.057 256.978 184.606 252.355C201.155 247.733 216.214 238.878 228.3 226.664C240.386 214.45 249.08 199.298 253.528 182.7L281.905 190.304Z" stroke="#FD956E" stroke-width="40" mask="url(#path-5-inside-2)"/>
<mask id="path-6-inside-3" fill="white">
<path d="M158 23.104C181.282 23.104 204.162 29.1699 224.386 40.7039C244.609 52.2379 261.479 68.8421 273.333 88.8803C285.186 108.919 291.614 131.699 291.983 154.978C292.353 178.257 286.651 201.23 275.439 221.634L240.669 202.529C248.561 188.166 252.575 171.994 252.315 155.608C252.055 139.221 247.53 123.185 239.186 109.079C230.842 94.9736 218.967 83.2854 204.731 75.1663C190.495 67.0471 174.389 62.7771 158 62.7771L158 23.104Z"/>
</mask>
<path d="M158 23.104C181.282 23.104 204.162 29.1699 224.386 40.7039C244.609 52.2379 261.479 68.8421 273.333 88.8803C285.186 108.919 291.614 131.699 291.983 154.978C292.353 178.257 286.651 201.23 275.439 221.634L240.669 202.529C248.561 188.166 252.575 171.994 252.315 155.608C252.055 139.221 247.53 123.185 239.186 109.079C230.842 94.9736 218.967 83.2854 204.731 75.1663C190.495 67.0471 174.389 62.7771 158 62.7771L158 23.104Z" stroke="#7889FB" stroke-width="40" mask="url(#path-6-inside-3)"/>
</svg>
