<svg width="18" height="20" viewBox="0 0 18 20" fill="none" xmlns="http://www.w3.org/2000/svg">
<path d="M14.7193 13.264C13.8638 13.2637 13.0422 13.6076 12.4308 14.2219L6.47077 10.7817C6.59324 10.2629 6.59324 9.72149 6.47077 9.20263L12.4289 5.76245C12.9856 6.3183 13.7167 6.65261 14.4915 6.70553C15.2663 6.75845 16.0342 6.52652 16.6576 6.05127C17.2811 5.57602 17.7194 4.88848 17.8941 4.11173C18.0689 3.33498 17.9686 2.51974 17.6113 1.81196C17.254 1.10418 16.6629 0.550078 15.944 0.248847C15.225 -0.0523852 14.4251 -0.0810756 13.6874 0.167912C12.9498 0.416899 12.3225 0.927307 11.9179 1.60776C11.5134 2.28821 11.3579 3.09428 11.4794 3.88165L5.38065 7.40363C4.90161 6.99389 4.31875 6.73278 3.70036 6.65089C3.08196 6.569 2.45364 6.66972 1.88901 6.94126C1.32437 7.2128 0.846799 7.64391 0.512242 8.18408C0.177686 8.72425 0 9.35111 0 9.99123C0 10.6313 0.177686 11.2582 0.512242 11.7984C0.846799 12.3385 1.32437 12.7697 1.88901 13.0412C2.45364 13.3127 3.08196 13.4135 3.70036 13.3316C4.31875 13.2497 4.90161 12.9886 5.38065 12.5788L11.4794 16.1027C11.374 16.7829 11.4742 17.48 11.7667 18.0999C12.0591 18.7198 12.5296 19.2328 13.1148 19.5697C13.7 19.9066 14.3717 20.0511 15.0394 19.9839C15.7071 19.9167 16.3387 19.641 16.8491 19.1938C17.3594 18.7467 17.7239 18.1497 17.8935 17.4832C18.0631 16.8168 18.0295 16.1131 17.7974 15.4668C17.5653 14.8206 17.1458 14.2629 16.5954 13.869C16.045 13.4751 15.3902 13.264 14.7193 13.264Z" fill="white"/>
</svg>
